<svg xmlns="http://www.w3.org/2000/svg" width="396" height="153" viewBox="0 0 396 153">
  <g id="Group_12" data-name="Group 12" transform="translate(-629 -164.815)" opacity="0.72">
    <g id="Rectangle_37" data-name="Rectangle 37" transform="translate(651 242.815)" fill="#dedede" stroke="#707070" stroke-width="1">
      <rect width="79" height="20" stroke="none"/>
      <rect x="0.5" y="0.5" width="78" height="19" fill="none"/>
    </g>
    <g id="Rectangle_38" data-name="Rectangle 38" transform="translate(759 195.815)" fill="#dedede" stroke="#707070" stroke-width="1">
      <rect width="64" height="24" stroke="none"/>
      <rect x="0.5" y="0.5" width="63" height="23" fill="none"/>
    </g>
    <g id="Rectangle_43" data-name="Rectangle 43" transform="translate(823 195.815)" fill="#dedede" stroke="#707070" stroke-width="1">
      <rect width="63" height="24" stroke="none"/>
      <rect x="0.5" y="0.5" width="62" height="23" fill="none"/>
    </g>
    <g id="Rectangle_46" data-name="Rectangle 46" transform="translate(886 195.815)" fill="#dedede" stroke="#707070" stroke-width="1">
      <rect width="65" height="24" stroke="none"/>
      <rect x="0.5" y="0.5" width="64" height="23" fill="none"/>
    </g>
    <g id="Rectangle_39" data-name="Rectangle 39" transform="translate(759 219.815)" fill="#dedede" stroke="#707070" stroke-width="1">
      <rect width="64" height="22" stroke="none"/>
      <rect x="0.5" y="0.5" width="63" height="21" fill="none"/>
    </g>
    <g id="Rectangle_42" data-name="Rectangle 42" transform="translate(823 219.815)" fill="#dedede" stroke="#707070" stroke-width="1">
      <rect width="63" height="22" stroke="none"/>
      <rect x="0.5" y="0.5" width="62" height="21" fill="none"/>
    </g>
    <g id="Rectangle_45" data-name="Rectangle 45" transform="translate(886 219.815)" fill="#dedede" stroke="#707070" stroke-width="1">
      <rect width="65" height="22" stroke="none"/>
      <rect x="0.5" y="0.5" width="64" height="21" fill="none"/>
    </g>
    <g id="Rectangle_40" data-name="Rectangle 40" transform="translate(759 241.815)" fill="#dedede" stroke="#707070" stroke-width="1">
      <rect width="64" height="21" stroke="none"/>
      <rect x="0.5" y="0.5" width="63" height="20" fill="none"/>
    </g>
    <g id="Rectangle_41" data-name="Rectangle 41" transform="translate(823 241.815)" fill="#dedede" stroke="#707070" stroke-width="1">
      <rect width="63" height="21" stroke="none"/>
      <rect x="0.5" y="0.5" width="62" height="20" fill="none"/>
    </g>
    <g id="Rectangle_44" data-name="Rectangle 44" transform="translate(886 241.815)" fill="#dedede" stroke="#707070" stroke-width="1">
      <rect width="65" height="21" stroke="none"/>
      <rect x="0.5" y="0.5" width="64" height="20" fill="none"/>
    </g>
    <g id="Union_2" data-name="Union 2" transform="translate(629 253.815)" fill="#bcb6b6">
      <path d="M 359.5 48.5004997253418 L 11.99969959259033 48.5004997253418 C 8.928299903869629 48.5004997253418 6.040550231933594 47.30424880981445 3.868400096893311 45.13209915161133 C 1.696249961853027 42.9599494934082 0.5 40.07220077514648 0.5 37.00080108642578 L 0.5 8.339900016784668 L 314.4609069824219 8.339900016784668 L 314.8331909179688 8.339900016784668 L 314.9399108886719 7.983249664306641 C 315.5739440917969 5.864649772644043 316.9002380371094 3.959299802780151 318.6744995117188 2.618149757385254 C 320.5076904296875 1.232449889183044 322.6950073242188 0.4999998509883881 324.9999084472656 0.4999998509883881 L 395.5 0.4999998509883881 L 395.5 23.23979949951172 C 395.5 26.84614944458008 394.0958557128906 30.2364501953125 391.5462036132813 32.78625106811523 C 388.9965515136719 35.33599853515625 385.6065368652344 36.74020004272461 382.0005493164063 36.74020004272461 L 365.2025146484375 36.74020004272461 L 365.0612487792969 36.74020004272461 L 364.9408569335938 36.8140983581543 C 362.7861938476563 38.13719940185547 361.4997863769531 40.25025177001953 361.4997863769531 42.46649932861328 C 361.4997863769531 45.02919387817383 363.1374206542969 47.27002716064453 365.6121215820313 48.49959945678711 L 360 48.49959945678711 L 359.5 48.49959945678711 L 359.5 48.5004997253418 Z" stroke="none"/>
      <path d="M 359 48.0004997253418 L 359 47.99959945678711 L 360 47.99959945678711 L 363.8755187988281 47.99959945678711 C 362.1014709472656 46.62381744384766 360.9997863769531 44.65486145019531 360.9997863769531 42.46649932861328 C 360.9997863769531 40.07509994506836 362.3753051757813 37.80274963378906 364.6792602539063 36.3880500793457 L 364.9200134277344 36.24020004272461 L 365.2025146484375 36.24020004272461 L 382.0005493164063 36.24020004272461 C 385.4729614257813 36.24020004272461 388.7374572753906 34.88800048828125 391.1925964355469 32.43270111083984 C 393.6478576660156 29.97735023498535 395 26.71260070800781 395 23.23979949951172 L 395 0.9999998807907104 L 324.9999084472656 0.9999998807907104 C 322.8046875 0.9999998807907104 320.7216491699219 1.697499871253967 318.9760131835938 3.017049789428711 C 317.2859497070313 4.29449987411499 316.022705078125 6.109149932861328 315.4189147949219 8.12660026550293 L 315.2054443359375 8.839900016784668 L 314.4609069824219 8.839900016784668 L 1 8.839900016784668 L 1 37.00080108642578 C 1 43.0660514831543 5.934450149536133 48.0004997253418 11.99969959259033 48.0004997253418 L 359 48.0004997253418 M 360 49.0004997253418 L 11.99969959259033 49.0004997253418 C 5.373000144958496 49.0004997253418 0 43.62749862670898 0 37.00080108642578 L 0 7.839900016784668 L 314.4609069824219 7.839900016784668 C 315.818115234375 3.304799795150757 320.0228881835938 -1.373290956507844e-07 324.9999084472656 -1.373290956507844e-07 L 396 -1.373290956507844e-07 L 396 23.23979949951172 C 396 30.97259902954102 389.7324523925781 37.24020004272461 382.0005493164063 37.24020004272461 L 365.2025146484375 37.24020004272461 C 363.2591552734375 38.43349838256836 361.9997863769531 40.33214950561523 361.9997863769531 42.46649932861328 C 361.9997863769531 45.98640060424805 365.3729858398438 48.85469818115234 369.6786499023438 48.99509811401367 L 369.6786499023438 48.99959945678711 L 360 48.99959945678711 L 360 49.0004997253418 Z M 372.0006103515625 48.99959945678711 L 371.9988098144531 48.99959945678711 L 370.1430053710938 48.99959945678711 C 370.7658081054688 48.98970031738281 371.3904113769531 48.92219924926758 372.0006103515625 48.79349899291992 L 372.0006103515625 48.99779891967773 L 372.0006103515625 48.99959945678711 Z" stroke="none" fill="#707070"/>
    </g>
    <g id="Rectangle_32" data-name="Rectangle 32" transform="translate(652 301.815)" fill="#c5c5c5" stroke="#707070" stroke-width="1">
      <path d="M0,0H359a5,5,0,0,1,5,5v6a5,5,0,0,1-5,5H8A8,8,0,0,1,0,8V0A0,0,0,0,1,0,0Z" stroke="none"/>
      <path d="M1,.5H359A4.5,4.5,0,0,1,363.5,5v6a4.5,4.5,0,0,1-4.5,4.5H8A7.5,7.5,0,0,1,.5,8V1A.5.5,0,0,1,1,.5Z" fill="none"/>
    </g>
    <g id="Rectangle_33" data-name="Rectangle 33" transform="translate(663 187.815)" fill="#dedede" stroke="#707070" stroke-width="1">
      <path d="M4,0H66a4,4,0,0,1,4,4V46a0,0,0,0,1,0,0H0a0,0,0,0,1,0,0V4A4,4,0,0,1,4,0Z" stroke="none"/>
      <path d="M4,.5H66A3.5,3.5,0,0,1,69.5,4V45a.5.5,0,0,1-.5.5H1A.5.5,0,0,1,.5,45V4A3.5,3.5,0,0,1,4,.5Z" fill="none"/>
    </g>
    <g id="Rectangle_34" data-name="Rectangle 34" transform="translate(671 164.815)" fill="#dedede" stroke="#707070" stroke-width="1">
      <rect width="27" height="25" stroke="none"/>
      <rect x="0.5" y="0.5" width="26" height="24" fill="none"/>
    </g>
    <g id="Rectangle_35" data-name="Rectangle 35" transform="translate(665 171.815)" fill="#dedede" stroke="#707070" stroke-width="1">
      <rect width="39" height="10" rx="3" stroke="none"/>
      <rect x="0.5" y="0.5" width="38" height="9" rx="2.5" fill="none"/>
    </g>
    <g id="Rectangle_36" data-name="Rectangle 36" transform="translate(636 232.815)" fill="#dedede" stroke="#707070" stroke-width="1">
      <path d="M0,0H98a3,3,0,0,1,3,3v7a4,4,0,0,1-4,4H5A5,5,0,0,1,0,9V0A0,0,0,0,1,0,0Z" stroke="none"/>
      <path d="M1,.5H98A2.5,2.5,0,0,1,100.5,3v7A3.5,3.5,0,0,1,97,13.5H5A4.5,4.5,0,0,1,.5,9V1A.5.5,0,0,1,1,.5Z" fill="none"/>
    </g>
    <g id="Ellipse_3" data-name="Ellipse 3" transform="translate(662 249.815)" fill="#dedede" stroke="#707070" stroke-width="1">
      <circle cx="4" cy="4" r="4" stroke="none"/>
      <circle cx="4" cy="4" r="3.5" fill="none"/>
    </g>
    <g id="Ellipse_7" data-name="Ellipse 7" transform="translate(1009 259.815)" fill="#dedede" stroke="#707070" stroke-width="0.5">
      <ellipse cx="2.5" cy="3" rx="2.5" ry="3" stroke="none"/>
      <ellipse cx="2.5" cy="3" rx="2.25" ry="2.75" fill="none"/>
    </g>
    <g id="Ellipse_4" data-name="Ellipse 4" transform="translate(677 249.815)" fill="#dedede" stroke="#707070" stroke-width="1">
      <ellipse cx="4.5" cy="4" rx="4.5" ry="4" stroke="none"/>
      <ellipse cx="4.5" cy="4" rx="4" ry="3.5" fill="none"/>
    </g>
    <g id="Ellipse_5" data-name="Ellipse 5" transform="translate(695 249.815)" fill="#dedede" stroke="#707070" stroke-width="1">
      <ellipse cx="4.5" cy="4" rx="4.5" ry="4" stroke="none"/>
      <ellipse cx="4.5" cy="4" rx="4" ry="3.5" fill="none"/>
    </g>
    <g id="Ellipse_6" data-name="Ellipse 6" transform="translate(711 249.815)" fill="#dedede" stroke="#707070" stroke-width="1">
      <circle cx="4" cy="4" r="4" stroke="none"/>
      <circle cx="4" cy="4" r="3.5" fill="none"/>
    </g>
    <g id="Rectangle_47" data-name="Rectangle 47" transform="translate(671 200.815)" fill="none" stroke="#6b6b6b" stroke-width="1">
      <path d="M4,0H16a4,4,0,0,1,4,4V21a0,0,0,0,1,0,0H0a0,0,0,0,1,0,0V4A4,4,0,0,1,4,0Z" stroke="none"/>
      <path d="M4,.5H16A3.5,3.5,0,0,1,19.5,4V20a.5.5,0,0,1-.5.5H1A.5.5,0,0,1,.5,20V4A3.5,3.5,0,0,1,4,.5Z" fill="none"/>
    </g>
    <g id="Rectangle_48" data-name="Rectangle 48" transform="translate(695 193.815)" fill="none" stroke="#6b6b6b" stroke-width="1">
      <rect width="15" height="7" rx="2" stroke="none"/>
      <rect x="0.5" y="0.5" width="14" height="6" rx="1.5" fill="none"/>
    </g>
    <g id="Rectangle_49" data-name="Rectangle 49" transform="translate(713 193.815)" fill="none" stroke="#6b6b6b" stroke-width="1">
      <rect width="14" height="7" rx="2" stroke="none"/>
      <rect x="0.5" y="0.5" width="13" height="6" rx="1.5" fill="none"/>
    </g>
  </g>
</svg>
